<?xml version='1.0' encoding='utf-8'?>
<svg xmlns="http://www.w3.org/2000/svg" xmlns:xlink="http://www.w3.org/1999/xlink" fill="none" viewBox="0 0 1200 800" width="1200" height="800"><defs><clipPath id="assetClipPath_0d74-jwK"><path d="m0 0 h 882.354 v 1409.487 h -882.354 v -1409.487 z" id="path_WAK5Cez0" fill="#ffffff" /></clipPath></defs><g transform="translate(405 110)" data-asset-index="0"><g clip-path="url(#assetClipPath_0d74-jwK)" transform="scale(0.39779952264057283 0.39730767293348573)" data-asset-index="0"><defs>
    <linearGradient id="linearGradient_XsCM6r0U" data-name="Безымянный градиент 2" x1="5518.144" y1="890.818" x2="5993.649" y2="1692.221" gradientTransform="translate(6117.891 839.377) rotate(-168.32) scale(1 -1)" gradientUnits="userSpaceOnUse">
      <stop offset="0" stop-color="#BEC3D7" />
      <stop offset="1" stop-color="#2B3656" />
    </linearGradient>
    <linearGradient id="linearGradient_PdhGsssU" data-name="Безымянный градиент 7" x1="5474.274" y1="900.667" x2="6062.729" y2="1428.01" gradientTransform="translate(6117.891 839.377) rotate(-168.32) scale(1 -1)" gradientUnits="userSpaceOnUse">
      <stop offset="0" stop-color="#FFFFFF" />
      <stop offset="1" stop-color="#BEC3D7" />
    </linearGradient>
    <linearGradient id="linearGradient_vMV_ldh-" data-name="Безымянный градиент 6" x1="256.461" y1="403.359" x2="326.888" y2="403.359" gradientUnits="userSpaceOnUse">
      <stop offset="0" stop-color="#BFC4D8" />
      <stop offset="1" stop-color="#2B3656" />
    </linearGradient>
    <linearGradient id="linearGradient_1h7HVZYP" data-name="Безымянный градиент 6" x1="287.777" y1="313.513" x2="337.112" y2="364.781" xlink:href="#linearGradient_vMV_ldh-" />
    <linearGradient id="linearGradient_AVkkE_Ff" data-name="Безымянный градиент 6" x1="593.208" y1="486.156" x2="519.246" y2="441.599" xlink:href="#linearGradient_vMV_ldh-" />
    <linearGradient id="linearGradient_NH9G3dMw" data-name="Безымянный градиент 6" x1="401.543" y1="260.172" x2="408.685" y2="313.014" xlink:href="#linearGradient_vMV_ldh-" />
    <linearGradient id="linearGradient_udh13XbB" data-name="Безымянный градиент 6" x1="432.88" y1="238.403" x2="441.047" y2="323.266" xlink:href="#linearGradient_vMV_ldh-" />
    <linearGradient id="linearGradient_JuWNkM6u" data-name="Безымянный градиент 6" x1="512.184" y1="229.007" x2="457.459" y2="337.754" xlink:href="#linearGradient_vMV_ldh-" />
    <radialGradient id="radialGradient_XllSY3qU" cx="461.7" cy="522.033" fx="461.7" fy="522.033" r="82.495" gradientUnits="userSpaceOnUse">
      <stop offset="0" stop-color="#FFFFFF" id="d-eoGSDFR0h3BlL23a6T-" stop-opacity="0.3" />
      <stop offset="1" stop-color="#FFFFFF" id="c-kYrgdIADjoaSafwY6s" stop-opacity="0" />
    </radialGradient>
    <radialGradient id="radialGradient_TND3oc3r" cx="528.584" cy="364.661" fx="528.584" fy="364.661" r="71.4" xlink:href="#radialGradient_XllSY3qU" />
    <radialGradient id="radialGradient_J44VzJes" cx="384.498" cy="354.8" fx="384.498" fy="354.8" r="82.684" xlink:href="#radialGradient_XllSY3qU" />
    <radialGradient id="radialGradient__r91VOgn" cx="325.253" cy="467.623" fx="325.253" fy="467.623" r="71.409" xlink:href="#radialGradient_XllSY3qU" />
  </defs><g id="food_image_recognition_application" data-name="food image recognition application">
    <g id="AJf5EqZVlvzQXPch6ZHh6">
      <path d="M790.236,1303.896c12.017-2.585,22.972-7.651,32.498-14.597,28.776-20.983,58.305-46.435,50.881-85.204L649.548,93.328c-9.429-49.24-55.563-82.49-102.979-74.189L56.843,100.53s-18.286,13.886-30.887,26.896C6.096,147.929-3.995,177.787,1.475,208.571l199.492,1122.63c9.379,52.781,57.714,87.049,107.594,76.319l481.675-103.624Z" fill="#2B3656" id="iQdFbfikqD3PfLQ8IGTlG" />
      <path d="M810.938,1286.028c48.318-10.395,79.469-60.889,69.587-112.492L670.25,75.46c-9.429-49.24-55.563-82.49-102.979-74.189L94.779,83.981c-48.909,8.562-81.543,56.404-72.601,106.722l199.492,1122.63c9.379,52.781,57.714,87.049,107.594,76.319l481.675-103.624Z" fill="url(#linearGradient_XsCM6r0U)" id="FiWXWjhwgLnGCatERYs3A" />
      <path d="M325.446,1368.396l481.527-103.276c37.642-8.073,61.854-47.254,54.169-87.471L651.175,78.851c-7.336-38.392-43.178-64.217-80.139-57.725L98.402,104.153c-38.101,6.693-63.401,43.847-56.422,83.028l199.83,1121.879c7.317,41.079,44.804,67.665,83.637,59.336Z" fill="url(#linearGradient_PdhGsssU)" id="MkVRDjxTCbVNoO6jUONmM" />
      <path d="M277.38,149.703l145.17-25.834c13.679-2.434,22.618-15.88,19.977-30.026h0c-2.64-14.138-15.851-23.64-29.52-21.229l-145.057,25.584c-13.799,2.434-22.888,15.938-20.29,30.168h0c2.6,14.239,15.911,23.794,29.721,21.336Z" fill="#010101" id="xaP4Y0eXezZsjirfQBsHU" />
    </g>
    <path d="M466.969,1317.661l194.178-41.529c1.989-.425,3.908.87,4.286,2.893h0c.378,2.024-.928,4.009-2.917,4.435l-194.199,41.578c-2.013.431-3.946-.872-4.318-2.909h0c-.372-2.037.958-4.038,2.971-4.468Z" fill="#2B3656" id="O9xJHIrTnvlLOdHWX_eU" />
    <g id="kDdNbW5Te4Rg2z8IuTKdM">
      <path d="M210.201,810.704l506.33-99.85c9.764-1.926,19.243,4.747,21.177,14.906l12.448,65.403c1.94,10.191-4.411,20.043-14.19,22.002l-507.104,101.624c-10.086,2.021-19.773-4.757-21.63-15.138l-11.918-66.618c-1.851-10.348,4.817-20.344,14.887-22.33Z" fill="#BFC4D8" id="OG65nEQESKMBBpNyKvyM0" fill-opacity="0.38" />
      <path d="M234.256,944.878l127.374-25.644c10.009-2.015,19.647,4.737,21.533,15.084l13.174,72.249c1.893,10.382-4.694,20.464-14.719,22.516l-127.583,26.119c-10.107,2.069-19.82-4.719-21.688-15.158l-12.997-72.651c-1.861-10.404,4.815-20.483,14.906-22.515Z" fill="#BFC4D8" id="gykwPlCSA0YJp2mxmJoKQ" fill-opacity="0.34" />
      <path d="M426.763,906.121l125.926-25.352c9.895-1.992,19.465,4.724,21.38,15.004l13.377,71.782c1.922,10.314-4.549,20.323-14.46,22.352l-126.129,25.821c-9.992,2.046-19.635-4.706-21.532-15.078l-13.205-72.178c-1.891-10.337,4.668-20.342,14.643-22.35Z" fill="#BFC4D8" id="L00adgU6b_o1ZAyHuSNFf" fill-opacity="0.29" />
      <path d="M617.082,867.805l124.502-25.065c9.783-1.97,19.285,4.711,21.229,14.925l13.574,71.32c1.95,10.248-4.407,20.184-14.206,22.19l-124.699,25.529c-9.878,2.022-19.453-4.694-21.38-14.998l-13.407-71.711c-1.92-10.27,4.524-20.203,14.386-22.188Z" fill="#BFC4D8" id="D3yGOUZ5Go9kwX0ENbN_" fill-opacity="0.33" />
    </g>
    <g id="t2cOykfwdbBgSfAoI2YuZ">
      <g id="sLeTAh0howso7y9wyqXcO">
        <path d="M611.253,1128.864c8.059,43.276-18.988,85.521-60.518,94.308-41.634,8.809-81.927-19.354-89.891-62.853-7.95-43.423,19.365-85.544,60.903-94.13,41.435-8.564,81.461,19.475,89.506,62.675Z" fill="#2B3656" id="H62_COwvBe85A-P6gKsD9" />
        <path d="M535.375,1227.789c-15.049,0-29.784-4.466-42.658-13.097-18.354-12.306-30.722-31.424-34.824-53.833-8.223-44.913,20.15-88.7,63.247-97.607,20.296-4.193,41.01-.098,58.329,11.533,18.252,12.259,30.588,31.27,34.733,53.531,8.348,44.825-19.845,88.694-62.846,97.792-5.319,1.125-10.67,1.682-15.98,1.682ZM536.728,1067.649c-4.778,0-9.589.489-14.374,1.478-39.93,8.253-66.199,48.919-58.559,90.651,3.808,20.802,15.266,38.534,32.264,49.929,16.06,10.767,35.257,14.506,54.055,10.529,39.843-8.43,65.947-49.173,58.19-90.823-3.848-20.664-15.277-38.296-32.18-49.648-11.884-7.982-25.5-12.116-39.396-12.116Z" fill="#2B3656" id="T5XzyqXpBJMBKM1KU0Gk1" />
      </g>
      <g id="Yu0Ak5mHR8BtLeiYNlTND">
        <path d="M513.229,1187.352c-3.129,0-6.191-.928-8.864-2.721-3.774-2.532-6.316-6.452-7.159-11.039l-6.494-35.328c-1.688-9.184,4.152-18.157,13.018-20.003l10.798-2.248-.096-2.883c-.119-3.569,2.273-6.674,5.688-7.384l17.066-3.549c3.422-.713,6.88,1.292,8.044,4.659l.891,2.578,10.653-2.218c4.216-.877,8.52-.032,12.117,2.382,3.763,2.526,6.303,6.434,7.151,11.004l6.535,35.231c1.703,9.178-4.107,18.156-12.95,20.015l-53.093,11.159c-1.1.231-2.206.345-3.304.345ZM538.588,1108.052c-.06,0-.12.006-.181.019l-17.066,3.549c-.542.113-.935.676-.914,1.31l.181,5.405c.049,1.458-.958,2.74-2.387,3.037l-13.269,2.763c-5.702,1.188-9.444,7.039-8.34,13.044l6.494,35.328c.548,2.982,2.182,5.518,4.601,7.141,2.257,1.514,4.953,2.043,7.591,1.487l53.093-11.159c5.681-1.194,9.398-7.047,8.285-13.048l-6.535-35.231c-.551-2.971-2.183-5.498-4.595-7.116-2.246-1.507-4.928-2.037-7.551-1.49h0l-13.237,2.756c-1.478.31-2.954-.53-3.447-1.957l-1.753-5.074c-.161-.465-.551-.763-.97-.763ZM557.384,1110.153h.01-.01Z" fill="#FFFFFF" id="MBlVHMjOcBHRr-xUp8Xx" />
        <path d="M537.708,1164.706c-3.278,0-6.487-.973-9.288-2.852-3.955-2.653-6.622-6.762-7.508-11.569-1.777-9.636,4.336-19.053,13.627-20.993,4.428-.924,8.948-.037,12.725,2.497,3.951,2.652,6.616,6.756,7.505,11.558h0c1.781,9.632-4.324,19.053-13.611,21-1.149.241-2.303.36-3.45.36ZM537.959,1134.938c-.729,0-1.464.075-2.194.228-6.127,1.279-10.144,7.574-8.953,14.032.591,3.204,2.349,5.929,4.95,7.674,2.427,1.628,5.326,2.197,8.164,1.603,6.125-1.284,10.136-7.582,8.943-14.036h0c-.592-3.2-2.349-5.923-4.948-7.667-1.8-1.208-3.86-1.833-5.961-1.833Z" fill="#FFFFFF" id="MOVMiOZB9UVDti4qAnP0A" />
      </g>
    </g>
    <g id="KVnl7HDgI2MUpVnZ902Y9">
      <g id="qoTZYpu8prT9_4Wsy0IKb">
        <path d="M146.762,352.229c-1.425,0-2.688-1.019-2.949-2.47l-11.662-64.904c-3.917-21.802,10.401-42.691,31.918-46.566l63.667-11.465c1.632-.295,3.191.791,3.484,2.421.294,1.631-.79,3.19-2.421,3.484l-63.667,11.465c-18.262,3.289-30.409,21.053-27.077,39.599l11.662,64.904c.293,1.631-.791,3.19-2.422,3.483-.179.032-.358.048-.534.048Z" fill="#2B3656" id="zrEGM81P6GMoKQDEjjk0x" />
        <path d="M244.59,726.818c-7.803,0-15.427-2.348-22.035-6.872-8.991-6.155-15.021-15.55-16.98-26.455l-11.829-65.832c-.293-1.631.791-3.19,2.422-3.483,1.63-.292,3.19.792,3.483,2.422l11.829,65.832c1.673,9.312,6.81,17.325,14.465,22.565,7.392,5.06,16.283,6.909,25.039,5.202l64.131-12.496c1.626-.316,3.201.745,3.518,2.371.317,1.626-.745,3.202-2.371,3.519l-64.131,12.496c-2.513.49-5.037.731-7.542.731Z" fill="#2B3656" id="cCmLzUtFD3i-1set18VDk" />
        <path d="M612.831,266.857c-1.413,0-2.671-1.002-2.944-2.442l-12.113-63.897c-3.46-18.252-20.739-30.496-38.509-27.296l-62.423,11.241c-1.633.293-3.191-.791-3.484-2.421-.294-1.631.79-3.19,2.421-3.484l62.423-11.241c20.998-3.783,41.397,10.611,45.468,32.084l12.113,63.897c.309,1.627-.761,3.197-2.389,3.506-.189.036-.377.053-.562.053Z" fill="#2B3656" id="XNrNk0Xnqdv-C13KBR0aT" />
        <path d="M585.654,661.044c-1.407,0-2.662-.994-2.941-2.427-.317-1.626.745-3.202,2.371-3.519l62.866-12.249c17.909-3.489,29.609-21.465,26.082-40.07l-12.284-64.798c-.309-1.627.761-3.197,2.389-3.506,1.631-.31,3.198.76,3.506,2.389l12.284,64.798c4.14,21.839-9.69,42.958-30.829,47.077l-62.866,12.249c-.194.038-.387.056-.577.056Z" fill="#2B3656" id="XBTAv2KfWRowfwQgTYcr" />
      </g>
      <g id="zE41zaOWavd_Nswixmgdw">
        <g id="WvZuL0bPMuCllkHXESr0t">
          <path d="M588.689,409.633c19.437,103.106-46.16,202.742-147.139,222.254-101.592,19.63-199.757-49.319-218.626-153.705-18.789-103.942,48.379-202.838,149.4-221.189,100.416-18.241,197.01,49.967,216.365,152.64Z" fill="#D2D8E7" id="yGXktEXvd2_1DysGtP8h7" />
          <path d="M406.78,620.265c-33.804,0-66.901-10.225-95.632-29.907-39.094-26.782-65.342-67.58-73.909-114.877-17.302-95.523,44.496-187.061,137.758-204.052,44.843-8.17,90.292,1.972,127.972,28.557,37.65,26.564,63.134,66.433,71.757,112.262,17.897,95.122-43.052,187.058-135.866,204.941-10.684,2.059-21.42,3.076-32.08,3.076ZM404.948,274.714c-9.539,0-19.189.852-28.877,2.617-90.01,16.399-149.642,104.809-132.929,197.08,8.279,45.708,33.635,85.128,71.396,110.997,36.458,24.976,80.207,34.169,123.185,25.889,89.58-17.26,148.393-106.056,131.105-197.94-15.301-81.323-85.664-138.643-163.881-138.643Z" fill="#FFFFFF" id="esDvqJHOYb8f06KVPngNm" />
        </g>
        <g id="kKlkoZLVXrVgoMJfKf2Ye">
          <g id="QqG2gW4AC6UP3JHHDITZ7">
            <path d="M326.282,396.91c3.571,19.495-9.012,38.2-28.127,41.768-19.137,3.572-37.547-9.381-41.098-28.922-3.548-19.525,9.091-38.203,28.207-41.73,19.095-3.523,37.449,9.404,41.017,28.884Z" fill="url(#linearGradient_vMV_ldh-)" id="l8KfXF5Fs282u_8xp7V5X" />
            <path d="M363.119,349.571c3.578,19.435-8.949,38.063-28.003,41.597-19.075,3.538-37.442-9.395-41-28.875-3.555-19.465,9.028-38.067,28.083-41.559s37.344,9.418,40.919,28.837Z" fill="url(#linearGradient_1h7HVZYP)" id="ltkPioJyvMdazxGzDVIcD" />
            <path d="M581.819,446.115c4.48,23.799-10.623,46.666-33.765,51.059-23.175,4.399-45.596-11.396-50.046-35.263-4.446-23.844,10.74-46.671,33.885-51.002,23.113-4.325,45.451,11.43,49.927,35.207Z" fill="url(#linearGradient_AVkkE_Ff)" id="gvzM3dRD_q7GHBpQG1_UQ" />
          </g>
          <g id="U7SSM7TM6LDlnZx-fwtxC">
            <path d="M423.97,366.097c-22.135-.624-62.613-33.549-27.419-103.818,0,0,68.3,48.629,27.419,103.818Z" fill="url(#linearGradient_NH9G3dMw)" id="NzP8LvCYzwYXB9uwmkHpf" />
            <path d="M424.64,369.714c-21.471-15.692-39.962-75.351,40.521-119.919,0,0,35.887,93.84-40.521,119.919Z" fill="url(#linearGradient_udh13XbB)" id="kDWHKfKUkV7Jw9L1yyOAg" />
            <path d="M416.62,371.2c-8.907-24.204,7.697-81.449,95.528-72.521,0,0-20.59,93.952-95.528,72.521Z" fill="url(#linearGradient_JuWNkM6u)" id="AfYK3h9F8bCSvZVmq2g3" />
          </g>
          <g id="Pjk4mmlcHpQGZMvNrhNe">
            <path d="M534.798,485.76c8.498,45.415-20.402,89.165-64.669,97.662-44.385,8.519-87.265-21.636-95.654-67.298-8.373-45.576,20.829-89.184,65.104-97.457,44.159-8.251,86.736,21.762,95.218,67.093Z" fill="#5764FF" id="m72Omwl4wKZBzpSYmK98K" />
            <path d="M534.798,485.76c8.498,45.415-20.402,89.165-64.669,97.662-44.385,8.519-87.265-21.636-95.654-67.298-8.373-45.576,20.829-89.184,65.104-97.457,44.159-8.251,86.736,21.762,95.218,67.093Z" fill="url(#radialGradient_XllSY3qU)" id="ChtUWAf9yzp5taPtgCBBl" />
          </g>
          <g id="f89PQB0r5RdthX9RByYZi">
            <path d="M549.393,387.698c7.281,38.771-17.413,76.022-55.243,83.161-37.916,7.155-74.563-18.654-81.764-57.605-7.19-38.889,17.725-76.035,55.562-83.011,37.751-6.96,74.176,18.745,81.446,57.454Z" fill="#C180FF" id="sEPrmhX1tA59mVmMBLlRh" />
            <path d="M549.393,387.698c7.281,38.771-17.413,76.022-55.243,83.161-37.916,7.155-74.563-18.654-81.764-57.605-7.19-38.889,17.725-76.035,55.562-83.011,37.751-6.96,74.176,18.745,81.446,57.454Z" fill="url(#radialGradient_TND3oc3r)" id="tat3usvM7r8ybNXyTUzw-" />
          </g>
          <g id="I_2XIjloG7l-bHL5NICcV">
            <path d="M475.22,369.272c8.43,45.242-20.536,88.716-64.819,97.046-44.4,8.352-87.237-21.798-95.558-67.284-8.306-45.402,20.963-88.734,65.254-96.841,44.174-8.086,86.709,21.921,95.124,67.079Z" fill="#5764FF" id="VV4nzIFoX03kJlvyG05l8" />
            <path d="M475.22,369.272c8.43,45.242-20.536,88.716-64.819,97.046-44.4,8.352-87.237-21.798-95.558-67.284-8.306-45.402,20.963-88.734,65.254-96.841,44.174-8.086,86.709,21.921,95.124,67.079Z" fill="url(#radialGradient_J44VzJes)" id="qZaFBtv_Bv4EwoSySFbz" />
          </g>
          <g id="oDxHXNklGWD7Jp6WKLowP">
            <path d="M402.95,479.826c7.208,39.078-17.866,76.7-56.092,83.988-38.314,7.305-75.222-18.635-82.349-57.896-7.115-39.198,18.183-76.714,56.415-83.836,38.145-7.106,74.83,18.728,82.026,57.744Z" fill="#C180FF" id="jwNMkESxrgEvjuiaHofs6" />
            <path d="M402.95,479.826c7.208,39.078-17.866,76.7-56.092,83.988-38.314,7.305-75.222-18.635-82.349-57.896-7.115-39.198,18.183-76.714,56.415-83.836,38.145-7.106,74.83,18.728,82.026,57.744Z" fill="url(#radialGradient__r91VOgn)" id="UL5EopKeRQzrUmsk6xH2V" />
          </g>
        </g>
      </g>
    </g>
  </g></g></g></svg>